<svg xmlns="http://www.w3.org/2000/svg" width="100" height="30" fill="none"><path fill="#000" d="m1.979 20 .934-2.695h3.978L7.82 20h1.63L5.787 9.818H4.012L.348 20h1.63Zm1.382-3.987 1.501-4.345h.08l1.501 4.345H3.361ZM10.802 20h1.487v-3.053h.964L15.555 20h1.844l-2.993-3.923 2.958-3.713h-1.839l-2.52 3.201h-.716v-3.201h-1.487V20Zm7.752 0h1.487v-3.053h.964L23.307 20h1.844l-2.993-3.923 2.958-3.713h-1.839l-2.52 3.201h-.716v-3.201h-1.487V20Zm9.974.169c1.263 0 1.974-.641 2.257-1.213h.06V20h1.452v-5.071c0-2.222-1.75-2.665-2.963-2.665-1.383 0-2.655.557-3.152 1.95l1.397.317c.218-.542.775-1.064 1.774-1.064.96 0 1.452.502 1.452 1.367v.035c0 .542-.557.532-1.929.691-1.447.17-2.928.547-2.928 2.282 0 1.502 1.128 2.327 2.58 2.327Zm.323-1.193c-.84 0-1.446-.378-1.446-1.114 0-.795.706-1.079 1.566-1.193.482-.065 1.625-.194 1.84-.408v.985c0 .905-.722 1.73-1.96 1.73Zm6.092 3.868c1.228 0 2.008-.642 2.446-1.825l3.157-8.64-1.606-.015-1.934 5.926h-.08l-1.934-5.926h-1.59l2.794 7.735-.184.508c-.378.989-.91 1.078-1.725.855l-.358 1.218c.179.084.566.164 1.014.164Zm8.46-10.48h-1.456V20h1.456v-3.172h3.306V20h1.452v-7.636h-1.452v3.176h-3.306v-3.176Zm5.8 1.282h2.5V20h1.452v-6.354h2.49v-1.282h-6.442v1.282Z"/><rect width="30" height="30" x="70" fill="#F5F5F5" rx="6"/><path fill="#000" fill-rule="evenodd" d="M86.43 16.968a3.751 3.751 0 1 0-2.86 0 8.613 8.613 0 0 0-3.762 1.612l1.382 1.839a6.317 6.317 0 0 1 3.81-1.27c1.43 0 2.748.473 3.81 1.27l1.381-1.839a8.613 8.613 0 0 0-3.76-1.612Z" clip-rule="evenodd"/></svg>