<svg version="1.0" xmlns="http://www.w3.org/2000/svg" width="360" height="436" viewBox="0 0 270 327"><path d="M0 163.5V327h75.5c52.9 0 75.5-.3 75.5-1.1 0-.6-1.3-8.1-2.9-16.7-2.9-15.3-8.1-55.3-8.1-62.2 0-1.9-.4-4.1-.9-4.8-.4-.8-.4-3.3.1-5.6.7-3.4.5-5.1-1.2-9-1.2-2.6-2.8-5-3.5-5.2-1.5-.6-7.5 2.5-7.5 3.8 0 .4-.3.8-.7.8-.5 0-.7-10.5-.5-23.2.3-23.3.3-23.3 2.2-20.8 1.1 1.4 2 3.1 2 3.7 0 .7 1.9 5.9 4.1 11.5 2.3 5.7 5.2 13.3 6.4 17 2.9 8.3 7.6 18.8 8.4 18.8.3 0 1.4-1.9 2.3-4.1 1.3-3.1 1.5-4.6.7-6.1-.6-1.1-.8-2.2-.5-2.5.2-.3-.4-1.4-1.4-2.6-2.2-2.3-13.6-20.9-17-27.6-1.7-3.5-1.9-4.3-.6-3.8 1.3.5 1.3.2.3-2.1-.6-1.5-1.6-3-2.1-3.3-.5-.4-.6-1.9-.2-3.4.4-1.6.3-2.4-.3-2.1-1 .7-4.1-3.1-4.1-4.9.1-3.3 1.8-3.5 4.8-.6 1.8 1.6 3.2 3.2 3.2 3.7 0 .4 1.1 2.2 2.6 4.1 1.4 1.8 2.3 3.7 1.9 4.2-.3.5-.1 1.2.5 1.6.6.4.8 1 .6 1.4-.6 1 4.4 6.5 6.7 7.4.9.3 1.7 1.1 1.7 1.6 0 .8 3.9 2.1 7.5 2.6 4 .5 6.1 4 3 5.1-.8.4-1.2 1-.9 1.5.3.5 0 .9-.6.9s-.8.4-.5 1c.3.5-.1 1-.9 1-.9 0-1.6.7-1.6 1.5s.7 1.5 1.6 1.5c.8 0 1.3.4 1 .8-.2.4.3 1.3 1.3 1.9 1.5 1 2.1.5 3.9-3.3 2.6-5.3 2.6-5.4.6-5.4-1.4 0-1.4-.1 0-1.6 2.1-2 2-2.8-.1-2-1.7.6-1.7.5 0-.8 1.2-.9 1.4-1.5.6-1.8-3-1 4.6-9.8 8.5-9.8.8 0 4-3.4 7.1-7.5 3.1-4.1 5.8-7.5 6.1-7.5.3 0 .2.4-.1 1-.3.5-.1 1 .4 1 .6 0 1.1-.5 1.1-1.1 0-.8.6-.7 1.7.2 1.3 1.1 1.7 1.1 2 .1.3-.6 1.6-1.2 2.9-1.2 2.1 0 2.4.5 2.4 3.4 0 1.9-.7 6.1-1.5 9.3-.8 3.2-2.6 14.7-3.9 25.7-1.4 10.9-2.7 20-2.9 20.2-.2.2-5-1.6-10.8-4.1-12.4-5.3-18.3-6.5-19.2-4.1-.4 1-.3 1.4.3 1.1.5-.3-.2 2-1.6 5-2.7 5.9-2.7 8.8 0 3.8.8-1.5 1.5-2.4 1.6-1.9 0 .5 1.1-.3 2.4-1.7 1.5-1.7 3.1-2.4 4-2.1 2.3.9 2 2.1-1.6 6.8l-3.3 4.1 4.4-3.7c4.6-3.9 7.1-4.8 7.1-2.6 0 .7-2.3 6-5.1 11.8-5.8 12.1-9.4 22.5-10.1 29.2-.5 4.3-.4 4.7 1.3 3.8 1-.6 2.1-1.5 2.4-2 .4-.6 1-.8 1.5-.5.5.3 1.2-.4 1.5-1.6.5-1.4 1.3-1.9 2.6-1.6 1 .3 1.9.1 1.9-.4s-.3-.9-.7-.9c-.5 0-1.4-.4-2.2-.9-1.1-.7-1-1.3.5-3.6 1-1.5 2.1-4.8 2.5-7.4 1.1-6.6 6.5-25.1 7.7-26.3.6-.6 2.2-.8 3.5-.4 2 .5 2.7 1.4 3.2 4.6.9 5.1 2 5.8 3.9 2.3l1.5-2.8v2.5c.1 1.4-.6 11-1.4 21.5-.8 10.4-1.8 29.9-2.2 43.2l-.6 24.3H270V0H0v163.5zM171.3 42.1c1.2.6 2.9 2.1 3.9 3.2 1.3 1.7 1.9 1.9 3.1.9 2.9-2.4 5.9 3 7.1 12.8l.5 4.5-8.6 4c-4.7 2.2-10 4.7-11.7 5.5-5.5 2.6-5.5 5.3-.2 18.2 3.4 8.4 4.5 12.2 4 14.2-.8 3.4-1.6 3.8-8.8 4.4-3.4.2-6.4.9-6.8 1.6-1 1.5 1.6 2 4 .7 1.6-.8 2.5-.6 4.5.9 1.4 1.1 3 2 3.5 2s1.2.9 1.5 2.1c.3 1.2 1 1.8 1.6 1.4.6-.3 1.1-.1 1.1.5 0 .7.7.9 1.6.6.8-.3 1.2-.2.9.4-.3.6-.1 1 .5 1s.9.4.6.9c-.4.5-.1 1.1.5 1.3 2.3.8-.4 3.8-3.5 3.9-3.9.1-6.8 1.2-6.4 2.4.2.6-1.7 1.1-4 1.3-2.8.2-4.2 0-3.8-.7.4-.6-.9-.4-2.9.5-2 .8-5.3 1.3-7.3 1.2-3.1-.3-3.8.1-5 2.5-1.8 3.6-1.1 4.2 1.9 1.9 3-2.4 13.3-4.2 22.5-4.1 3.8 0 6.3.3 5.7.6-.7.2-1.3 1.2-1.3 2 0 1.1.6 1.4 2.1 1 1.4-.4 1.8-.2 1.2.4-.5.5-3.7 1.5-7.1 2.1-3.4.6-6.2 1.6-6.2 2.1s.6.7 1.3.4c.8-.3 2-.1 2.8.3.7.5 1.8.5 2.5-.1.8-.7 1.4-.6 1.9.1.9 1.5 4.7 1.2 7.1-.5 1.2-.8 2.4-1.1 2.8-.8.3.3.6-.3.6-1.5 0-1.6.4-2 1.7-1.5 1.1.4 1.4.3.9-.5-.4-.7-.3-1.2.3-1.2s.8-.6.5-1.4c-.4-1.1.1-1.1 3-.2 4.6 1.4 4.7 3.7.2 6.2-1.1.6-2.7 3.1-3.5 5.6-1.7 4.7-6.9 11.1-8.3 10.2-.5-.3-1.5 0-2.3.6-.8.6-1.8.9-2.3.6-.5-.3-4 .5-7.8 1.8-5 1.7-7.6 2.1-9.3 1.5-1.3-.5-3.8-1.1-5.5-1.4-11.7-1.5-20.2-5.1-27.7-11.9-2.6-2.2-5.8-4.9-7.3-5.9-1.4-1-4-3.9-5.7-6.6-3.3-5.1-5.6-5.9-7.7-2.9-1.3 1.8-5.5 2.4-8.6 1.2-4.5-1.7-17.5-25.1-17.6-31.6 0-2 .3-4.3.6-5.2.8-2.2 4-2 6.3.3 1.1 1.1 2.2 1.7 2.5 1.4.3-.4.6-.1.6.6 0 2.5 8.7 11.3 10.8 10.9 1.5-.3 1.7-2.1 1.7-13.8 0-15 .7-17.3 7.1-24.9 2-2.3 3.1-4.1 2.5-4.1-1.7 0-1.3-2.1.7-3.7 1.6-1.4 1.6-1.4-.2-.9-1.6.5-1.8.2-1.4-2.9.2-1.9.1-3.5-.3-3.5-1.1 0 1.2-4.1 3.8-6.9 2.4-2.6 9.6-5.4 10.1-4 .2.6 1.1.4 2-.3 1.3-1.1 1.4-1.1.7.2-.8 1.3-.6 1.3.7.2 1.4-1.1 2.1-1.1 4.2.3 1.8 1.2 2.6 1.4 2.6.5 0-.8.9-1.1 2.5-.8 1.4.3 2.8.1 3.1-.3.8-1.4 3.1-1.1 4.8.7 1.5 1.4 1.7 1.4 2.2-.1.5-1.2.9-1.3 2-.4s1.4.8 1.4-.7c0-1.4.3-1.5 1.2-.6.7.7 1.7.8 2.9.1 1.4-.7 2.1-.5 2.9 1.2 1.1 2 1.2 2 2.5.2 1.2-1.6 1.7-1.6 4.5-.6 2.6 1 3.1 1 2.6-.2-.4-1 .5-1.4 3.5-1.3 2.2 0 4.3-.2 4.6-.6.8-.8 1.1-.8 3.6.5zm11.3 38.6c-.3.8.2 1.3 1.3 1.3 1.4 0 1.7.6 1.4 2.4-.4 2.1-.2 2.4 1.5 1.9 1.1-.2 2.3 0 2.6.6.4.6 1.8.8 3.1.5 2-.5 2.4-.1 3 2.6.4 1.8.4 5.2 0 7.7s-.8 6.3-1 8.4c-.6 5.1-3.4 13.6-5.1 15-.8.6-1.4.8-1.4.4s-.6-.2-1.4.4c-1.8 1.5-5.6 2.2-5.6 1.1 0-.5-1.2-.8-2.6-.7-3.3.2-5.7-2.8-3.4-4.3.8-.5 1.1-1 .6-1-.5 0-.4-.6.2-1.3 1.3-1.5.5-5.4-3.6-15.8-3.5-9.2-4.5-13.6-3.2-14.4.6-.4.8-1.1.4-1.6-.3-.5 0-1.7.7-2.5 1-1.2 1.4-1.2 2.6.6 2.9 4.1 9.4 1 7.6-3.7-.6-1.6-.5-1.6 1.1-.4.9.8 1.5 2 1.2 2.8zM147 173.1c0 .6.9.8 2.1.4 1.6-.6 3 .2 6 3.6 4.3 4.8 4.6 6.2 2.4 10.6-2.5 5-6.4 4.9-11.4-.3-2.3-2.4-4.1-4.8-4.1-5.4 0-.5-.4-1-.9-1-1.9 0-1.8-4 .3-6.4 2.1-2.5 5.6-3.5 5.6-1.5zm-15 61.3c0 .3-.4.8-1 1.1-.5.3-1 .1-1-.4 0-.6.5-1.1 1-1.1.6 0 1 .2 1 .4zm4.5 3.6c2.3 2.6.4 2.6-2.6 0-1.8-1.5-2-1.9-.8-2 .9 0 2.4.9 3.4 2zm93.5 86c0 .5-.4 1-1 1-.5 0-1-.5-1-1 0-.6.5-1 1-1 .6 0 1 .4 1 1z"/><path d="M143.6 75.5c-1.3 1-2.3 1.1-3.1.5-.7-.6-4-1-7.3-.9-5.1.1-6.3.5-6.7 2-.5 1.4-1.6 1.9-4.1 1.9-1.9 0-3.4.4-3.4 1 0 .5 1.5 1 3.3 1h3.2l-3 1.8c-1.6 1.1-3.7 2.7-4.5 3.7-1.7 2.2-1.2 1.9 4.9-2.2 1.9-1.3 3.9-2.3 4.4-2.3.6 0-1.1 1.4-3.7 3.1-5.1 3.2-5.7 4.6-1.3 3 1.7-.7 2.8-.7 3.2-.1.9 1.4 4.9 1.2 6.3-.2.7-.7 1.2-2 1.2-3.1 0-1.4.5-1.7 2.3-1.1 1.2.3 2.7 1.1 3.4 1.6.7.6 1.9.5 3.3-.2 1.7-.9 1.9-1.4.9-2.6-.9-1.2-.6-1.4 2-1.4 3.5 0 7.1-1.5 7.1-3 0-.6-5.7-4.2-6.4-4-.1 0-1 .7-2 1.5zM129 85c0 .5-.2 1-.4 1-.3 0-.8-.5-1.1-1-.3-.6-.1-1 .4-1 .6 0 1.1.4 1.1 1zM73.7 96.7c-1.4 1.3-.6 2.3 1.9 2.3 2.2 0 2.5-.2 1.4-1.5-1.4-1.6-2.3-1.9-3.3-.8zM85 107c0 .5.5 1 1.1 1 .5 0 .7-.5.4-1-.3-.6-.8-1-1.1-1-.2 0-.4.4-.4 1zM168.5 144c-.3.6.1.7.9.4 1.8-.7 2.1-1.4.7-1.4-.6 0-1.3.4-1.6 1zM156.4 241.2l-1.9 2.3 2.3-1.9c2.1-1.8 2.7-2.6 1.9-2.6-.2 0-1.2 1-2.3 2.2zM164.2 275.5c-1.3.7-1.9 1.6-1.4 1.9.9.5 4.2-1.8 4.2-3 0-.5.1-.5-2.8 1.1zM154.4 316.2c.3 1.8.8 5 1.1 7.1.3 2 1.2 3.7 1.9 3.7 1 0 .9-1.4-.3-7-1.6-7-3.6-9.9-2.7-3.8z"/></svg>